<?xml version="1.0" encoding="UTF-8"?>
<svg width="409px" height="139px" viewBox="0 0 409 139" version="1.1" xmlns="http://www.w3.org/2000/svg" xmlns:xlink="http://www.w3.org/1999/xlink">
    <title>Group 4</title>
    <defs>
        <linearGradient x1="50%" y1="0%" x2="50%" y2="100%" id="linearGradient-1">
            <stop stop-color="#EA961A" offset="0%"></stop>
            <stop stop-color="#D13F07" offset="100%"></stop>
        </linearGradient>
        <linearGradient x1="50%" y1="0%" x2="50%" y2="100%" id="linearGradient-2">
            <stop stop-color="#EA951A" offset="0%"></stop>
            <stop stop-color="#D14007" offset="100%"></stop>
        </linearGradient>
    </defs>
    <g id="Page-1" stroke="none" stroke-width="1" fill="none" fill-rule="evenodd">
        <g id="Group-4">
            <g id="南瓜">
                <path d="M13.9748325,20.2531673 C10.816361,20.9282729 5.06070266,24.7544338 4.84150275,29.535869 L77.9081406,33.7552789 C76.2475352,26.1603412 75.6663233,22.7848133 67.1142055,20.2531673 C63.8228855,19.2793276 55.7722705,17.7215214 50.5081514,21.0970493 C48.532031,19.4092854 42.6584696,17.7215214 38.0536109,17.7215214 C34.0515519,17.7215214 27.2115182,19.5814373 25.2370583,21.0970493 C21.9490596,19.5814373 17.9220916,19.4092854 13.9748325,20.2531673 Z" id="Path" fill="#E77C1E" fill-rule="nonzero"></path>
                <path d="M53.9804773,19.6084415 C55.0681738,23.4902986 55.6909009,28.2801727 55.4467919,32.4590762 L33.9004367,28.6919871 C31.5456982,25.3468389 24.9746827,23.7299611 25.318428,21.0362898 C27.3941848,19.5324922 34.1030305,17.7215214 38.0519502,17.7215214 C42.656809,17.7215214 48.5303703,19.4092853 50.5064908,21.0970493 C51.5814467,20.4217645 52.7527491,19.9196199 53.9788167,19.6084415 L53.9804773,19.6084415 Z" id="Path" fill="#E78526" fill-rule="nonzero"></path>
                <path d="M48.0172433,27.0042231 C48.847546,25.3164592 49.6778487,27.0042231 49.6778487,23.6286953 C52.1687568,20.2531673 51.5709389,20.4151927 50.5081514,21.0970493 C50.3922567,20.9987098 50.272015,20.9057865 50.1478,20.8185683 C48.8458854,21.9409313 47.18528,24.4725772 48.0155827,27.0042231 L48.0172433,27.0042231 Z" id="Path" fill="#DD7A1B" fill-rule="nonzero"></path>
                <path d="M51.2354966,20.670045 C49.1896307,22.7915643 47.7615101,24.8894548 48.0554372,26.3848138 C48.2248189,27.2489489 49.1979337,29.4244766 50.7290119,32.1856585 L77.9081406,33.7552789 L77.8134861,33.3215236 C76.2209655,26.0303833 75.5019234,22.7358681 67.1125449,20.2531673 C63.9723401,19.3248972 56.4879915,17.859918 51.2354966,20.670045 L51.2354966,20.670045 Z" id="Path" fill="#F08C2B" fill-rule="nonzero"></path>
                <path d="M59.6414811,25.3164592 C57.150573,26.1603412 52.1305629,26.7797505 51.3384541,27.8481051 C51.5078358,28.7122403 49.1962731,29.4244766 50.7273513,32.1856585 L77.90648,33.7552789 L77.8118254,33.3215236 C76.9483107,29.3637171 76.3421897,26.5839699 74.6267843,24.4725772 C71.3387856,22.4472604 63.7929946,23.9105518 59.6414811,25.3164592 L59.6414811,25.3164592 Z" id="Path" fill="#EA8321" fill-rule="nonzero"></path>
                <path d="M53.8293622,27.0042231 C43.7826995,31.1392448 38.1266775,31.0936752 28.0899784,27.0042231 C28.0899784,23.6286952 33.9020974,23.6286952 35.5627028,19.4092853 C37.2233082,12.6582296 38.0536109,5.06329183 44.6960325,0 C45.8019957,0.562025394 47.1869406,1.68776392 50.5081514,4.21940984 C45.5263352,6.75105575 44.6960325,13.5021115 44.6960325,19.4092853 C44.6960325,25.3164592 53.8293622,23.6286952 53.8293622,27.0042231 Z" id="Path" fill="#6B7E5F" fill-rule="nonzero"></path>
                <path d="M28.5499661,26.8168813 C28.7342933,26.6295395 28.9202811,26.4421977 30.5808866,27.0042231 C30.5808866,25.5510583 31.8097346,24.724054 33.2129461,23.780594 C35.0678423,22.5333365 37.2233082,21.085235 37.2233082,17.7215214 C37.2233082,12.3071747 41.4080338,4.05907231 45.9414865,0.769620359 C45.4549291,0.432067544 45.0613656,0.18565406 44.6960325,0 C39.6843254,3.81940978 37.9805442,9.08017 36.7334296,14.3324914 C36.5557448,15.0818586 36.386363,15.8329136 36.2186419,16.5772175 L36.1787873,16.7578082 C35.9778541,17.6506353 35.7769208,18.5367114 35.5627028,19.4092853 C34.7373819,21.5021126 32.8924493,22.5569651 31.2418075,23.5004251 C29.564596,24.459075 28.0899784,25.302957 28.0899784,27.0042231 C28.3656389,27.0042231 28.4586328,26.9097083 28.5499661,26.8168813 L28.5499661,26.8168813 Z" id="Path" fill="#5A6C4F" fill-rule="nonzero"></path>
                <path d="M0.689989259,35.4430428 C3.18089737,23.6286953 13.1445298,21.9409313 24.7687676,25.3164592 C13.9748325,31.223633 27.2596757,71.7299677 14.8051352,72.5738496 C2.35059464,73.4177315 -1.80091885,47.2573904 0.689989259,35.4430428 Z" id="Path" fill="#E27516" fill-rule="nonzero"></path>
                <path d="M4.01120002,35.4430428 C5.96739321,26.1603412 15.6354378,22.7848133 29.7505838,25.3164592 C18.9566487,31.223633 31.3563892,74.7274365 18.126346,75.9493775 C-0.140313469,77.6371414 1.52029199,47.2573904 4.01120002,35.4430428 Z" id="Path" fill="#D96D0E" fill-rule="nonzero"></path>
                <path d="M81.2293514,34.5991608 C78.7384433,22.7848133 69.6051136,22.7848133 57.9808757,26.1603412 C68.7748109,32.067515 55.4899676,72.5738497 67.9445082,73.4177316 C80.3990487,74.2616135 83.7202596,46.4135085 81.2293514,34.5991608 Z" id="Path" fill="#F79537" fill-rule="nonzero"></path>
                <path d="M79.568746,38.8185708 C77.0778379,27.0042232 66.2839027,24.4725773 57.9808757,26.1603412 C79.568746,32.9113969 70.4354163,64.1350299 67.9445082,73.4177316 C82.8899568,70.0422037 81.4535332,47.7586563 79.568746,38.8185708 L79.568746,38.8185708 Z" id="Path" fill="#EA8321" fill-rule="nonzero"></path>
                <path d="M4.84150275,36.2869248 C6.83422923,26.8354467 18.126346,21.9409313 29.7505838,25.3164592 C18.9566487,31.223633 31.3563892,74.7274365 18.126346,75.9493775 C-0.140313469,77.6371414 2.35059464,48.1012724 4.84150275,36.2869248 Z" id="Path" fill="#E77C1E" fill-rule="nonzero"></path>
                <path d="M41.3731611,75.9493775 L41.3731611,29.535869 C41.3731611,27.0042231 35.5776482,24.5654042 28.9186205,25.3164592 C5.67014482,27.9426199 10.1786885,65.8227939 13.9731719,72.5738496 C17.7693158,79.3249054 30.5792259,83.5443153 41.3731611,75.9493775 Z" id="Path" fill="#E27516" fill-rule="nonzero"></path>
                <path d="M77.90648,37.3535916 C75.9137535,27.9021135 63.791334,23.6286952 52.1670962,27.0042231 C62.9610314,32.9113969 47.989013,77.6371414 60.4701232,77.6371414 C83.7185989,77.6371414 80.5302365,49.7890363 77.90648,37.3535916 L77.90648,37.3535916 Z" id="Path" fill="#F08C2B" fill-rule="nonzero"></path>
                <path d="M70.4354163,46.4135085 C69.170035,35.4869247 63.7929947,25.3164592 52.1687568,27.0042231 C62.962692,32.9113969 47.989013,77.6371414 60.4717839,77.6371414 C69.6051136,75.1054955 72.0960217,60.759502 70.4354163,46.4135085 Z" id="Path" fill="#DD7A1B" fill-rule="nonzero"></path>
                <path d="M41.3731611,75.9493775 L41.3731611,29.535869 C41.3731611,27.0042231 37.2382536,24.5654042 30.5792259,25.3164592 C7.3307502,27.9426199 11.0089912,65.8227939 14.8034746,72.5738496 C18.5996186,79.3249054 30.579226,83.5443153 41.3731611,75.9493775 Z" id="Path" fill="#EB8123" fill-rule="nonzero"></path>
                <path d="M41.3731611,75.9493775 L41.3731611,29.535869 C40.5428583,26.1603411 39.3272952,32.0793292 39.7125557,37.9746888 C40.5428584,50.6329183 40.426616,61.3265907 39.7125557,69.1983218 C38.9984954,77.0700528 40.6424947,76.2312341 41.3731611,75.9493775 Z" id="Path" fill="#E17515" fill-rule="nonzero"></path>
                <path d="M41.3748216,75.9493775 L41.3748216,29.7097087 C41.3748216,26.3341808 47.7116919,25.7367124 55.4899676,27.0042231 C72.0960217,29.7097087 70.4354163,58.2278561 67.9445082,68.3544398 C65.4536001,78.4810234 51.3384542,83.5443153 41.3748216,75.9493775 L41.3748216,75.9493775 Z" id="Path" fill="#E78526" fill-rule="nonzero"></path>
                <path d="M41.3748216,75.7721623 L41.3748216,29.3586538 C43.035427,26.1603411 42.2034637,32.9113969 42.2034638,35.4430428 C42.2034638,48.1299644 41.7584216,63.3890382 43.0337664,70.0422037 C44.310772,76.6953692 42.1569668,77.2658334 41.3731611,75.7721623 L41.3748216,75.7721623 Z" id="Path" fill="#E17515" fill-rule="nonzero"></path>
                <path d="M22.8956047,20.270045 C23.5150105,20.941775 24.4316647,21.635446 25.444634,22.4016908 C26.5755063,23.2590749 27.8276028,24.2075983 28.9202811,25.3164592 C28.9202811,24.6919865 27.2596757,22.2312267 25.9477975,20.6464164 C25.7007103,20.7784427 25.4636892,20.9290741 25.2387189,21.0970493 C24.4837858,20.7516697 23.7002404,20.4749205 22.8972653,20.270045 L22.8956047,20.270045 Z" id="Path" fill="#E27516" fill-rule="nonzero"></path>
                <g id="Group-2" transform="translate(103.213118, 15.080000)">
                    <path d="M257.291217,0 L257.291217,50.4 L233.764476,50.4 L233.764476,0 L257.291217,0 Z M243.847365,40.32 L237.125439,40.32 L237.125439,47.04 L243.847365,47.04 L243.847365,40.32 Z M253.930254,40.32 L247.208328,40.32 L247.208328,47.04 L253.930254,47.04 L253.930254,40.32 Z M253.930254,26.88 L237.125439,26.88 L237.125439,36.96 L253.930254,36.96 L253.930254,26.88 Z M253.930254,13.44 L237.125439,13.44 L237.125439,23.52 L253.930254,23.52 L253.930254,13.44 Z M243.847365,3.36 L237.125439,3.36 L237.125439,10.08 L243.847365,10.08 L243.847365,3.36 Z M253.930254,3.36 L247.208328,3.36 L247.208328,10.08 L253.930254,10.08 L253.930254,3.36 Z" id="Combined-Shape" fill="url(#linearGradient-1)"></path>
                    <g id="PUMPK" transform="translate(0.000000, 1.620000)" fill="#FFFFFF" fill-rule="nonzero">
                        <path d="M0,43.575 L0,5.775 C0.175,2.45 1.8375,0.7 4.9875,0.525 L17.0625,0.525 C27.7375,1.225 33.425,6.5625 34.125,16.5375 C33.425,26.5125 27.825,31.85 17.325,32.55 L9.975,32.55 L9.975,43.575 C9.8,46.725 8.1375,48.3 4.9875,48.3 C1.8375,48.3 0.175,46.725 0,43.575 Z M9.975,9.45 L9.975,23.625 L16.8,23.625 C21,23.275 23.275,20.9125 23.625,16.5375 C23.45,11.9875 21.175,9.625 16.8,9.45 L9.975,9.45 Z" id="Shape"></path>
                        <path d="M39.2700001,29.4 L39.2700001,5.25 C39.4450001,1.925 41.1075001,0.175 44.2575001,0 C47.4075001,0.175 49.0700001,1.925 49.2450001,5.25 L49.2450001,28.875 C49.7700001,35.875 53.2700001,39.55 59.7450001,39.9 C66.0450001,39.375 69.4575001,35.7 69.9825001,28.875 L69.9825001,5.25 C70.1575001,1.925 71.8200001,0.175 74.9700001,0 C78.1200001,0.175 79.7825001,1.925 79.9575001,5.25 L79.9575001,29.4 C78.9075001,41.3 72.1700001,47.6875 59.7450001,48.5625 C47.1450001,47.6875 40.3200001,41.3 39.2700001,29.4 Z" id="Path"></path>
                        <path d="M86.6775002,42.7875 L92.9775002,5.25 C94.0275002,1.925 96.2150002,0.175 99.5400002,0 C102.865,0.175 105.14,1.8375 106.365,4.9875 L114.24,31.5 L114.5025,31.5 L122.3775,4.9875 C123.6025,1.8375 125.79,0.175 128.94,0 C132.44,0.175 134.715,1.925 135.765,5.25 L141.8025,42.7875 C141.9775,43.1375 142.065,43.4875 142.065,43.8375 C141.89,46.8125 140.2275,48.3 137.0775,48.3 C133.9275,48.475 132.1775,47.075 131.8275,44.1 L127.89,16.5375 L119.7525,44.8875 C118.8775,47.1625 117.04,48.3 114.24,48.3 C111.615,48.3 109.865,47.1625 108.99,44.8875 L100.8525,16.5375 L96.9150002,44.1 C96.5650002,47.075 94.8150002,48.475 91.6650002,48.3 C88.5150002,48.3 86.8525002,46.8125 86.6775002,43.8375 C86.6775002,43.4875 86.6775002,43.1375 86.6775002,42.7875 Z" id="Path"></path>
                        <path d="M149.0475,43.575 L149.0475,5.775 C149.2225,2.45 150.885,0.7 154.035,0.525 L166.11,0.525 C176.785,1.225 182.4725,6.5625 183.1725,16.5375 C182.4725,26.5125 176.8725,31.85 166.3725,32.55 L159.0225,32.55 L159.0225,43.575 C158.8475,46.725 157.185,48.3 154.035,48.3 C150.885,48.3 149.2225,46.725 149.0475,43.575 Z M159.0225,9.45 L159.0225,23.625 L165.8475,23.625 C170.0475,23.275 172.3225,20.9125 172.6725,16.5375 C172.4975,11.9875 170.2225,9.625 165.8475,9.45 L159.0225,9.45 Z" id="Shape"></path>
                        <path d="M188.8425,43.8375 L188.8425,4.9875 C189.0175,1.8375 190.68,0.175 193.83,0 C196.98,0.175 198.6425,1.8375 198.8175,4.9875 L198.8175,19.425 L215.355,1.8375 C216.58,0.6125 217.8925,0 219.2925,0 C222.2675,0.35 223.93,2.0125 224.28,4.9875 C224.28,6.3875 223.1425,8.1375 220.8675,10.2375 L208.2675,22.8375 L223.755,38.85 C223.93,39.025 224.105,39.2 224.28,39.375 C226.03,41.125 226.8175,42.7 226.6425,44.1 C226.4675,46.9 224.7175,48.3 221.3925,48.3 C219.8175,48.475 218.0675,47.6 216.1425,45.675 L198.8175,26.775 L198.8175,43.8375 C198.6425,46.8125 196.98,48.3 193.83,48.3 C190.68,48.3 189.0175,46.8125 188.8425,43.8375 Z" id="Path"></path>
                        <path d="M264.398608,43.575 L264.398608,5.25 C264.573608,1.925 266.236108,0.175 269.386108,0 C271.136108,0.175 272.536108,0.9625 273.586108,2.3625 L294.848608,30.7125 L295.111108,30.7125 L295.111108,5.25 C295.286108,1.925 296.948608,0.175 300.098608,0 C303.248608,0.175 304.911108,1.925 305.086108,5.25 L305.086108,43.575 C304.911108,46.725 303.248608,48.3 300.098608,48.3 C298.348608,48.3 296.948608,47.6875 295.898608,46.4625 L274.636108,18.375 L274.373608,18.375 L274.373608,43.575 C274.198608,46.725 272.536108,48.3 269.386108,48.3 C266.236108,48.3 264.573608,46.725 264.398608,43.575 Z" id="Path"></path>
                    </g>
                </g>
            </g>
            <g id="--CINEMA--" transform="translate(7.000000, 92.000000)" fill="url(#linearGradient-2)" fill-rule="nonzero">
                <path d="M3.74905087,26.5322581 L29.992407,26.5322581 C32.4917742,26.7007168 33.8247701,27.9641577 33.9913946,30.3225806 C33.8247701,32.8494624 32.4917742,34.1971326 29.992407,34.3655914 L3.74905087,34.3655914 C1.41630811,34.1971326 0.166624483,32.8494624 0,30.3225806 C0.166624483,27.9641577 1.41630811,26.7007168 3.74905087,26.5322581 Z M50.7871425,23.7526882 C51.7868894,8.92831541 59.1183667,1.01075269 72.7815743,0 C81.6126719,0.505376344 86.1948452,2.86379928 86.5280942,7.07526882 C86.3614697,9.77060932 85.111786,11.202509 82.7790433,11.3709677 C81.9459209,11.3709677 80.8628617,11.1182796 79.5298659,10.6129032 C77.1971231,9.77060932 74.9476926,9.34946237 72.7815743,9.34946237 C65.2834725,9.85483871 61.2844849,14.7401434 60.7846115,24.0053763 C61.2844849,32.9336918 65.2834725,37.6505376 72.7815743,38.155914 C74.9476926,38.155914 77.2804353,37.5663082 79.7798026,36.3870968 C81.2794229,35.7132616 82.3624821,35.3763441 83.02898,35.3763441 C85.5283473,35.5448029 86.9446554,37.0609319 87.2779043,39.9247312 C87.1112798,44.4731183 82.2791698,46.8315412 72.7815743,47 C59.1183667,46.1577061 51.7868894,38.4086022 50.7871425,23.7526882 Z M106.173121,42.1989247 L106.173121,5.30645161 C106.339745,2.10573477 107.922678,0.421146953 110.921919,0.252688172 C113.921159,0.421146953 115.504092,2.10573477 115.670716,5.30645161 L115.670716,42.1989247 C115.504092,45.2311828 113.921159,46.7473118 110.921919,46.7473118 C107.922678,46.7473118 106.339745,45.2311828 106.173121,42.1989247 Z M135.315743,42.1989247 L135.315743,5.30645161 C135.482367,2.10573477 137.0653,0.421146953 140.064541,0.252688172 C141.730785,0.421146953 143.063781,1.17921147 144.063528,2.52688172 L164.308403,29.8172043 L164.55834,29.8172043 L164.55834,5.30645161 C164.724964,2.10573477 166.307897,0.421146953 169.307137,0.252688172 C172.306378,0.421146953 173.889311,2.10573477 174.055935,5.30645161 L174.055935,42.1989247 C173.889311,45.2311828 172.306378,46.7473118 169.307137,46.7473118 C167.640893,46.7473118 166.307897,46.1577061 165.30815,44.9784946 L145.063275,17.9408602 L144.813338,17.9408602 L144.813338,42.1989247 C144.646714,45.2311828 143.063781,46.7473118 140.064541,46.7473118 C137.0653,46.7473118 135.482367,45.2311828 135.315743,42.1989247 Z M193.950899,41.9462366 L193.950899,6.3172043 C193.950899,2.61111111 195.533831,0.758064516 198.699696,0.758064516 L214.695647,0.758064516 C217.528263,0.926523297 219.027883,2.35842294 219.194508,5.05376344 C219.027883,7.91756272 217.528263,9.43369176 214.695647,9.60215054 L203.448494,9.60215054 L203.448494,18.9516129 L213.945836,18.9516129 C216.778453,19.1200717 218.361385,20.6362007 218.694634,23.5 C218.361385,26.3637993 216.778453,27.8799283 213.945836,28.0483871 L203.448494,28.0483871 L203.448494,37.9032258 L215.19552,37.9032258 C218.028136,37.9032258 219.527757,39.3351254 219.694381,42.1989247 C219.527757,45.062724 218.028136,46.578853 215.19552,46.7473118 L198.699696,46.7473118 C195.700456,46.578853 194.117523,44.9784946 193.950899,41.9462366 Z M236.340167,41.4408602 L242.338648,5.30645161 C243.338395,2.10573477 245.421201,0.421146953 248.587067,0.252688172 C251.752932,0.421146953 253.91905,2.02150538 255.085421,5.05376344 L262.583523,30.5752688 L262.83346,30.5752688 L270.331562,5.05376344 C271.497933,2.02150538 273.580739,0.421146953 276.57998,0.252688172 C279.912469,0.421146953 282.078588,2.10573477 283.078335,5.30645161 L288.826879,41.4408602 C288.993504,41.7777778 289.076816,42.1146953 289.076816,42.4516129 C288.910192,45.3154122 287.327259,46.7473118 284.328018,46.7473118 C281.328778,46.9157706 279.662533,45.5681004 279.329284,42.7043011 L275.580233,16.172043 L267.832194,43.4623656 C266.999072,45.6523297 265.249515,46.7473118 262.583523,46.7473118 C260.084156,46.7473118 258.417911,45.6523297 257.584789,43.4623656 L249.83675,16.172043 L246.087699,42.7043011 C245.75445,45.5681004 244.088206,46.9157706 241.088965,46.7473118 C238.089724,46.7473118 236.506792,45.3154122 236.340167,42.4516129 C236.340167,42.1146953 236.340167,41.7777778 236.340167,41.4408602 Z M305.222728,40.4301075 L318.219438,5.30645161 C319.552434,1.93727599 321.801865,0.168458781 324.96773,0 C328.133595,0 330.466338,1.7688172 331.965958,5.30645161 L344.462794,40.4301075 C344.796043,41.4408602 344.962668,42.2831541 344.962668,42.9569892 C344.796043,45.483871 343.296423,46.7473118 340.463807,46.7473118 C338.131064,46.7473118 336.548131,45.7365591 335.715009,43.7150538 L333.965452,37.6505376 L316.219944,37.6505376 L314.220451,43.7150538 C313.387328,45.7365591 311.804396,46.7473118 309.471653,46.7473118 C306.639037,46.7473118 305.139416,45.3996416 304.972792,42.7043011 C304.972792,42.1989247 305.056104,41.609319 305.222728,40.9354839 C305.222728,40.5985663 305.222728,40.4301075 305.222728,40.4301075 Z M324.96773,10.1075269 L318.969248,28.8064516 L330.966211,28.8064516 L324.96773,10.1075269 Z M364.757656,26.5322581 L391.001012,26.5322581 C393.50038,26.7007168 394.833376,27.9641577 395,30.3225806 C394.833376,32.8494624 393.50038,34.1971326 391.001012,34.3655914 L364.757656,34.3655914 C362.424914,34.1971326 361.17523,32.8494624 361.008605,30.3225806 C361.17523,27.9641577 362.424914,26.7007168 364.757656,26.5322581 Z" id="Combined-Shape"></path>
            </g>
        </g>
    </g>
</svg>